<svg width="235" height="235" viewBox="0 0 235 235" fill="none" xmlns="http://www.w3.org/2000/svg">
<path d="M94 169.5C94 152.4 89.1495 138.561 83.7305 125.753C78.4314 113.228 72.1364 100.868 70.5352 88.0583C70.512 87.8732 70.5 87.6863 70.5 87.4997C70.5 69.2953 73.9417 54.2934 81.8916 43.6238C89.9999 32.7416 102.285 27.0383 118.35 26.5027C118.499 26.4977 118.65 26.4995 118.8 26.5095C134.94 27.5856 147.251 34.1781 154.94 45.3191C162.531 56.3166 165.194 71.1283 163.477 87.9568C162.059 101.844 154.499 113.294 148.242 124.997C141.854 136.944 136 150.305 136 169.5C136 169.615 135.995 169.73 135.986 169.844C135.497 176.207 132.415 180.542 128.067 183.216C124.012 185.709 119.098 186.616 114.889 187.04C112.959 187.234 111.061 187.335 109.334 187.411C111.033 187.779 112.931 188.109 114.955 188.43C118.693 189.024 122.969 189.603 126.186 190.42C127.781 190.825 129.537 191.385 130.983 192.263C132.393 193.12 134.5 194.931 134.5 198C134.5 200.284 133.398 202.055 132.207 203.254C131.051 204.417 129.607 205.267 128.219 205.903C125.425 207.184 121.864 208.046 118.284 208.576C111.244 209.619 102.552 209.594 97.0771 207.769C94.7195 206.983 93.4448 204.435 94.2305 202.077C95.0164 199.719 97.5652 198.444 99.9229 199.23C103.448 200.405 110.506 200.631 116.966 199.674C118.782 199.404 120.42 199.058 121.809 198.666C119.464 198.209 116.657 197.813 113.545 197.319C109.654 196.701 105.271 195.926 101.82 194.611C100.092 193.953 98.2497 193.035 96.7812 191.663C95.211 190.196 94 188.123 94 185.5C94 184.03 94.5215 182.666 95.4639 181.587C96.3193 180.606 97.3513 180.051 98.1572 179.722C99.7008 179.093 101.529 178.86 103.057 178.727C104.672 178.587 106.551 178.522 108.355 178.446C110.218 178.367 112.111 178.274 113.986 178.085C117.839 177.696 121.081 176.947 123.354 175.55C125.307 174.349 126.712 172.592 127.001 169.295C127.043 148.099 133.616 133.265 140.306 120.753C147.148 107.955 153.339 98.655 154.523 87.0427C156.105 71.5393 153.518 59.1008 147.534 50.4314C141.68 41.9503 132.161 36.4735 118.419 35.5066C104.61 36.0162 95.216 40.8037 89.1084 49.0007C82.8436 57.4087 79.5378 70.0616 79.501 87.2097C80.9527 98.3021 86.3643 108.88 92.0195 122.247C97.6004 135.438 103 150.6 103 169.5C103 171.985 100.985 174 98.5 174C96.0147 174 94 171.985 94 169.5Z" fill="#EFDD74" stroke="black" stroke-linecap="round" stroke-linejoin="round"/>
</svg>
