<?xml version="1.0"?>
<svg xmlns="http://www.w3.org/2000/svg" viewBox="0 0 1024 1024" width="1024" height="1024">
<g transform="translate(197.4 204.8) scale(6.4)"><g fill="none" stroke="#0F172A" stroke-width="6" stroke-linecap="round" stroke-linejoin="round"><path d="M27.7 77.7 C59.7 77.7 45.7 29.7 77.7 29.7"></path><path d="M16.3 66.3 C48.3 66.3 34.3 18.3 66.3 18.3"></path></g><g fill="none" stroke="#0F172A" stroke-width="5" stroke-linecap="round" stroke-linejoin="round"><path d="M42.1 72.7 L30.8 61.3"></path><path d="M48.3 64.2 L36.9 52.8"></path><path d="M52.7 53.7 L41.3 42.3"></path><path d="M57.1 43.2 L45.7 31.8"></path><path d="M63.3 34.7 L51.9 23.3"></path></g><circle cx="73" cy="60" r="7.5" fill="#4F46E5"></circle><path d="M69.2 66.5 L76.8 66.5 L75.4 72.5 L70.6 72.5 Z" fill="#0F172A"></path><g fill="none" stroke="#4F46E5" stroke-width="2.6" stroke-linecap="round"><path d="M73 47 L73 49.5"></path><path d="M64 51 L65.8 52.8"></path><path d="M82 51 L80.2 52.8"></path></g></g>
</svg>