<svg xmlns="http://www.w3.org/2000/svg" width="480" height="300" viewBox="0 0 480 300" font-family="sans-serif"><path d="M60.52 274.25 L470.43 274.25" fill="none" stroke="#808080" stroke-opacity="0.16" stroke-width="1" stroke-linecap="butt" stroke-linejoin="miter"/><path d="M60.52 185.5 L470.43 185.5" fill="none" stroke="#808080" stroke-opacity="0.16" stroke-width="1" stroke-linecap="butt" stroke-linejoin="miter"/><path d="M60.52 96.75 L470.43 96.75" fill="none" stroke="#808080" stroke-opacity="0.16" stroke-width="1" stroke-linecap="butt" stroke-linejoin="miter"/><path d="M60.52 8 L470.43 8" fill="none" stroke="#808080" stroke-opacity="0.16" stroke-width="1" stroke-linecap="butt" stroke-linejoin="miter"/><path d="M60.52 8 L60.52 274.25" fill="none" stroke="#808080" stroke-opacity="0.16" stroke-width="1" stroke-linecap="butt" stroke-linejoin="miter"/><path d="M177.64 8 L177.64 274.25" fill="none" stroke="#808080" stroke-opacity="0.16" stroke-width="1" stroke-linecap="butt" stroke-linejoin="miter"/><path d="M294.75 8 L294.75 274.25" fill="none" stroke="#808080" stroke-opacity="0.16" stroke-width="1" stroke-linecap="butt" stroke-linejoin="miter"/><path d="M411.87 8 L411.87 274.25" fill="none" stroke="#808080" stroke-opacity="0.16" stroke-width="1" stroke-linecap="butt" stroke-linejoin="miter"/><path d="M60.52 221 L119.08 150 L177.64 185.5 L236.2 114.5 L294.75 132.25 L353.31 61.25 L411.87 79 L470.43 8" fill="none" stroke="#4c8dff" stroke-width="2" stroke-linecap="round" stroke-linejoin="round"/><text x="52.52" y="274.25" text-anchor="end" dominant-baseline="central" font-size="11" fill="#333333">0.0</text><text x="52.52" y="185.5" text-anchor="end" dominant-baseline="central" font-size="11" fill="#333333">5.0</text><text x="52.52" y="96.75" text-anchor="end" dominant-baseline="central" font-size="11" fill="#333333">10.0</text><text x="52.52" y="8" text-anchor="end" dominant-baseline="central" font-size="11" fill="#333333">15.0</text><text x="60.52" y="282.25" text-anchor="middle" dominant-baseline="hanging" font-size="11" fill="#333333">0.0</text><text x="177.64" y="282.25" text-anchor="middle" dominant-baseline="hanging" font-size="11" fill="#333333">2.0</text><text x="294.75" y="282.25" text-anchor="middle" dominant-baseline="hanging" font-size="11" fill="#333333">4.0</text><text x="411.87" y="282.25" text-anchor="middle" dominant-baseline="hanging" font-size="11" fill="#333333">6.0</text><text x="28.52" y="141.12" text-anchor="middle" dominant-baseline="central" font-size="12" fill="#333333" transform="rotate(-90 28.52 141.12)">USD</text></svg>