<svg xmlns="http://www.w3.org/2000/svg" width="480" height="300" viewBox="0 0 480 300" font-family="sans-serif"><defs><linearGradient id="g8" gradientUnits="userSpaceOnUse" x1="0" y1="8" x2="0" y2="274.25"><stop offset="0" stop-color="#4c8dff" stop-opacity="0.4"/><stop offset="1" stop-color="#4c8dff" stop-opacity="0"/></linearGradient></defs><path d="M37.52 274.25 L470.43 274.25" fill="none" stroke="#808080" stroke-opacity="0.16" stroke-width="1" stroke-linecap="butt" stroke-linejoin="miter"/><path d="M37.52 185.5 L470.43 185.5" fill="none" stroke="#808080" stroke-opacity="0.16" stroke-width="1" stroke-linecap="butt" stroke-linejoin="miter"/><path d="M37.52 96.75 L470.43 96.75" fill="none" stroke="#808080" stroke-opacity="0.16" stroke-width="1" stroke-linecap="butt" stroke-linejoin="miter"/><path d="M37.52 8 L470.43 8" fill="none" stroke="#808080" stroke-opacity="0.16" stroke-width="1" stroke-linecap="butt" stroke-linejoin="miter"/><path d="M37.52 8 L37.52 274.25" fill="none" stroke="#808080" stroke-opacity="0.16" stroke-width="1" stroke-linecap="butt" stroke-linejoin="miter"/><path d="M181.82 8 L181.82 274.25" fill="none" stroke="#808080" stroke-opacity="0.16" stroke-width="1" stroke-linecap="butt" stroke-linejoin="miter"/><path d="M326.13 8 L326.13 274.25" fill="none" stroke="#808080" stroke-opacity="0.16" stroke-width="1" stroke-linecap="butt" stroke-linejoin="miter"/><path d="M470.43 8 L470.43 274.25" fill="none" stroke="#808080" stroke-opacity="0.16" stroke-width="1" stroke-linecap="butt" stroke-linejoin="miter"/><path d="M37.52 203.25 L109.67 203.25 L109.67 203.25 L181.82 203.25 L181.82 114.5 L253.98 114.5 L253.98 114.5 L326.13 114.5 L326.13 167.75 L398.28 167.75 L398.28 79 L470.43 79 L470.43 79 L470.43 274.25 L37.52 274.25 Z" fill="url(#g8)" fill-rule="nonzero"/><path d="M37.52 203.25 L109.67 203.25 L109.67 203.25 L181.82 203.25 L181.82 114.5 L253.98 114.5 L253.98 114.5 L326.13 114.5 L326.13 167.75 L398.28 167.75 L398.28 79 L470.43 79 L470.43 79" fill="none" stroke="#4c8dff" stroke-width="2" stroke-linecap="round" stroke-linejoin="round"/><text x="29.52" y="274.25" text-anchor="end" dominant-baseline="central" font-size="11" fill="#333333">0.0</text><text x="29.52" y="185.5" text-anchor="end" dominant-baseline="central" font-size="11" fill="#333333">5.0</text><text x="29.52" y="96.75" text-anchor="end" dominant-baseline="central" font-size="11" fill="#333333">10.0</text><text x="29.52" y="8" text-anchor="end" dominant-baseline="central" font-size="11" fill="#333333">15.0</text><text x="37.52" y="282.25" text-anchor="middle" dominant-baseline="hanging" font-size="11" fill="#333333">0.0</text><text x="181.82" y="282.25" text-anchor="middle" dominant-baseline="hanging" font-size="11" fill="#333333">2.0</text><text x="326.13" y="282.25" text-anchor="middle" dominant-baseline="hanging" font-size="11" fill="#333333">4.0</text><text x="470.43" y="282.25" text-anchor="middle" dominant-baseline="hanging" font-size="11" fill="#333333">6.0</text></svg>